<?xml version="1.0" encoding="UTF-8"?>
<svg version="1.1" xmlns="http://www.w3.org/2000/svg" width="364" height="197">
<path d="M0 0 C2.2264918 1.6708075 4.34329892 3.40969363 6.44140625 5.23828125 C7.32699219 5.98271484 7.32699219 5.98271484 8.23046875 6.7421875 C19.03650078 16.5860386 25.94815891 31.26529188 29.44140625 45.23828125 C30.29412109 44.64080078 30.29412109 44.64080078 31.1640625 44.03125 C42.77103694 36.06719909 42.77103694 36.06719909 48.24609375 36.41796875 C53.22109095 37.69516852 56.92665186 40.64875628 61.125 43.5234375 C64.95282671 45.50272599 67.1891262 45.75794885 71.44140625 45.23828125 C78.62236594 41.71632201 83.30966782 33.17464898 87.8359375 26.84765625 C97.52608069 13.33107714 97.52608069 13.33107714 104.44140625 11.23828125 C111.30837959 10.24238042 116.98781859 10.48980448 122.6484375 14.71484375 C123.24011719 15.21757813 123.83179688 15.7203125 124.44140625 16.23828125 C125.31345703 16.93050781 125.31345703 16.93050781 126.203125 17.63671875 C135.13822418 25.54779533 139.63815992 36.95932717 143.37890625 47.98828125 C143.67345703 48.8508252 143.96800781 49.71336914 144.27148438 50.60205078 C146.15606744 56.46507374 147.06794665 62.09548637 147.44140625 68.23828125 C146.89726074 68.58084961 146.35311523 68.92341797 145.79248047 69.27636719 C143.2999436 70.84619373 140.80817 72.41722786 138.31640625 73.98828125 C137.46046875 74.52710937 136.60453125 75.0659375 135.72265625 75.62109375 C134.04003302 76.68244071 132.36267874 77.75219066 130.69091797 78.83056641 C128.44140625 80.23828125 128.44140625 80.23828125 125.25390625 81.87109375 C120.62656945 85.76576889 118.33626851 91.05693758 115.56640625 96.36328125 C103.69217196 118.93766823 103.69217196 118.93766823 94.6484375 122.68359375 C88.87554376 124.13448032 83.54127144 124.2287837 78.12890625 121.67578125 C72.23036056 116.32593749 67.78791741 110.50879887 64.44140625 103.23828125 C64.44140625 102.57828125 64.44140625 101.91828125 64.44140625 101.23828125 C63.20390625 101.17640625 61.96640625 101.11453125 60.69140625 101.05078125 C55.4660805 100.48945084 51.10220654 98.62967094 46.3359375 96.4921875 C40.0375166 93.66235841 40.0375166 93.66235841 33.44140625 94.23828125 C30.68170217 94.30755093 27.94944583 94.33245485 25.19140625 94.30078125 C24.44632813 94.29626953 23.70125 94.29175781 22.93359375 94.28710938 C21.10282985 94.27537371 19.27210752 94.25743975 17.44140625 94.23828125 C17.17328125 94.82222656 16.90515625 95.40617187 16.62890625 96.0078125 C9.17199612 110.0140483 -5.70338948 118.67760423 -20.05859375 124.05078125 C-38.17323659 129.44164538 -57.3058798 127.64510341 -74.18359375 119.17578125 C-82.29956712 114.51661135 -91.36318661 108.28828132 -96.30859375 100.17578125 C-99.16141727 96.45126166 -101.26979908 96.12643051 -105.765625 95.4296875 C-106.35730469 95.36652344 -106.94898437 95.30335937 -107.55859375 95.23828125 C-107.84992188 95.91632813 -108.14125 96.594375 -108.44140625 97.29296875 C-114.20657872 110.38244839 -120.86062934 122.5485947 -134.65625 128.53125 C-147.56622417 133.32941288 -161.74045614 132.38736869 -174.359375 127.0546875 C-190.19256088 119.14929201 -199.51336991 106.21056537 -204.99609375 89.80078125 C-212.129246 67.95274242 -210.54853104 42.94500265 -200.43359375 22.30078125 C-192.63758344 9.05431352 -181.40609551 -1.15387338 -166.55859375 -5.76171875 C-153.55559439 -9.11276396 -139.10855452 -7.47606397 -127.43359375 -1.13671875 C-118.2308113 4.70907388 -112.09116999 13.08164451 -109.24609375 23.55078125 C-107.98003003 30.15484335 -108.16668636 37.18436213 -111.30859375 43.23828125 C-114.85811842 47.97098082 -117.74592055 49.28567011 -123.49609375 50.11328125 C-129.33242235 50.52954243 -132.48679152 48.98295681 -136.93359375 45.23828125 C-139.4224317 40.6435035 -139.42084786 36.34432517 -138.55859375 31.23828125 C-136.32452386 26.5134611 -132.29939874 24.13460325 -127.55859375 22.23828125 C-126.89859375 22.23828125 -126.23859375 22.23828125 -125.55859375 22.23828125 C-125.89225402 15.89873603 -127.05641022 11.83401664 -131.55859375 7.23828125 C-138.99302468 1.8446745 -148.47976295 0.21670682 -157.55859375 1.23828125 C-164.14008865 2.61202781 -169.20803796 6.17819276 -173.55859375 11.23828125 C-182.3749505 24.7140597 -182.05373112 42.83522289 -181.94970703 58.33081055 C-181.93362877 61.16959808 -181.94965036 64.00695841 -181.96875 66.84570312 C-182.10379032 93.65089119 -182.10379032 93.65089119 -170.29296875 116.765625 C-163.74351991 122.32675611 -156.75167115 122.94073406 -148.34765625 122.6796875 C-139.47904727 121.64654027 -132.35042606 118.16367134 -126.31640625 111.57421875 C-123.1916469 107.42176077 -120.82268767 102.90368691 -118.55859375 98.23828125 C-119.67234375 98.32078125 -120.78609375 98.40328125 -121.93359375 98.48828125 C-131.75303281 98.41913027 -139.76686691 92.91453823 -146.55859375 86.23828125 C-159.55859375 71.38912324 -159.55859375 71.38912324 -159.55859375 66.23828125 C-143.38859375 66.23828125 -127.21859375 66.23828125 -110.55859375 66.23828125 C-110.88859375 62.27828125 -111.21859375 58.31828125 -111.55859375 54.23828125 C-110.45796339 33.17523749 -101.23736658 17.18029964 -86.18359375 2.98828125 C-61.64229265 -18.18125848 -26.00037952 -17.9025514 0 0 Z " fill="#D934B8" transform="translate(212.55859375,27.76171875)"/>
<path d="M0 0 C8.48951449 6.38100762 14.13785239 14.94457461 16.13671875 25.37109375 C16.93881077 33.03415749 16.04598731 39.58972526 11.390625 45.796875 C7.17949303 49.51257968 1.84169658 49.93687042 -3.609375 49.796875 C-8.29504925 48.23498358 -11.24560577 46.16075666 -13.609375 41.796875 C-14.33038187 37.38323484 -14.6419351 32.98062977 -12.69140625 28.85546875 C-9.98018669 25.35457359 -6.66198913 23.41792065 -2.609375 21.796875 C-1.949375 21.796875 -1.289375 21.796875 -0.609375 21.796875 C-0.94303527 15.45732978 -2.10719147 11.39261039 -6.609375 6.796875 C-14.04380593 1.40326825 -23.5305442 -0.22469943 -32.609375 0.796875 C-39.1908699 2.17062156 -44.25881921 5.73678651 -48.609375 10.796875 C-57.42573175 24.27265345 -57.10451237 42.39381664 -57.00048828 57.8894043 C-56.98441002 60.72819183 -57.00043161 63.56555216 -57.01953125 66.40429688 C-57.15457157 93.20948494 -57.15457157 93.20948494 -45.34375 116.32421875 C-38.79430116 121.88534986 -31.8024524 122.49932781 -23.3984375 122.23828125 C-14.52982852 121.20513402 -7.40120731 117.72226509 -1.3671875 111.1328125 C1.75757185 106.98035452 4.12653108 102.46228066 6.390625 97.796875 C5.276875 97.879375 4.163125 97.961875 3.015625 98.046875 C-6.80381406 97.97772402 -14.81764816 92.47313198 -21.609375 85.796875 C-34.609375 70.94771699 -34.609375 70.94771699 -34.609375 65.796875 C-18.439375 65.796875 -2.269375 65.796875 14.390625 65.796875 C16.370625 71.736875 18.350625 77.676875 20.390625 83.796875 C22.79756295 89.34904296 22.79756295 89.34904296 25.390625 94.796875 C22.750625 94.796875 20.110625 94.796875 17.390625 94.796875 C17.09929687 95.47492188 16.80796875 96.15296875 16.5078125 96.8515625 C10.74264003 109.94104214 4.08858941 122.10718845 -9.70703125 128.08984375 C-22.61700542 132.88800663 -36.79123739 131.94596244 -49.41015625 126.61328125 C-65.24334213 118.70788576 -74.56415116 105.76915912 -80.046875 89.359375 C-87.18002725 67.51133617 -85.59931229 42.5035964 -75.484375 21.859375 C-67.68836469 8.61290727 -56.45687676 -1.59527963 -41.609375 -6.203125 C-27.54764711 -9.82701858 -12.16623411 -7.72823676 0 0 Z " fill="#B05CF1" transform="translate(87.609375,28.203125)"/>
<path d="M0 0 C2.08067177 1.22249587 3.85714734 2.55534782 5.6953125 4.1171875 C6.27667969 4.57867187 6.85804688 5.04015625 7.45703125 5.515625 C16.42540784 13.45616517 20.92559733 24.92931452 24.6953125 35.9921875 C25.14970703 37.31114014 25.14970703 37.31114014 25.61328125 38.65673828 C26.02513672 39.93266846 26.02513672 39.93266846 26.4453125 41.234375 C26.68765625 41.98315918 26.93 42.73194336 27.1796875 43.50341797 C27.6953125 46.1171875 27.6953125 46.1171875 27.6953125 54.1171875 C-11.5746875 54.1171875 -50.8446875 54.1171875 -91.3046875 54.1171875 C-91.3046875 47.5171875 -91.3046875 40.9171875 -91.3046875 34.1171875 C-87.25776825 30.65600656 -85.88563065 29.7205176 -81.3046875 28.1171875 C-79.95903563 27.13382652 -78.62398128 26.13563814 -77.3046875 25.1171875 C-72.47119114 23.57046866 -69.66552604 24.14290551 -65.2421875 26.3046875 C-62.34815093 27.86974051 -59.78845251 29.49171092 -57.1171875 31.4296875 C-53.3937737 33.66373578 -51.58430099 33.92883833 -47.3046875 33.1171875 C-40.11770201 29.01907662 -35.61256892 21.29977464 -30.91015625 14.7265625 C-23.18055617 3.94470418 -14.55196046 -5.57414079 0 0 Z " fill="#4F0FD1" transform="translate(331.3046875,39.8828125)"/>
<path d="M0 0 C37.29 0 74.58 0 113 0 C111 2 111 2 107.75 3.75 C103.77514754 5.97491742 100.99617816 8.56535674 98 12 C98 12.99 98 13.98 98 15 C96.80753055 16.14806899 95.61311347 17.29419401 94.40820312 18.42919922 C91.63986638 21.51718094 90.06110139 25.36404415 88.25 29.0625 C76.49469863 52.16843379 76.49469863 52.16843379 65 56 C59.84185438 56.49395115 55.42537296 56.67234574 50.6875 54.4375 C44.78895431 49.08765624 40.34651116 43.27051762 37 36 C37 35.34 37 34.68 37 34 C35.7625 33.938125 34.525 33.87625 33.25 33.8125 C28.02467425 33.25116959 23.66080029 31.39138969 18.89453125 29.25390625 C12.59611035 26.42407716 12.59611035 26.42407716 6 27 C3.24029592 27.06926968 0.50803958 27.0941736 -2.25 27.0625 C-2.99507812 27.05798828 -3.74015625 27.05347656 -4.5078125 27.04882812 C-6.3385764 27.03709246 -8.16929873 27.0191585 -10 27 C-9.52949219 25.97261719 -9.05898437 24.94523437 -8.57421875 23.88671875 C-7.94489087 22.48716868 -7.31600884 21.08741807 -6.6875 19.6875 C-6.37876953 19.01654297 -6.07003906 18.34558594 -5.75195312 17.65429688 C-3.11884761 11.75059715 -1.75473955 6.43404503 0 0 Z " fill="#CA87FE" transform="translate(240,95)"/>
<path d="M0 0 C3.49009946 0.56791397 5.75734777 1.59613771 8.81787109 3.35839844 C10.41308594 4.26525391 10.41308594 4.26525391 12.04052734 5.19042969 C13.13751953 5.83109375 14.23451172 6.47175781 15.36474609 7.13183594 C16.44626953 7.74929687 17.52779297 8.36675781 18.64208984 9.00292969 C25.18407678 12.75135405 31.67373102 16.58746285 38.11474609 20.50683594 C38.82808105 20.93504639 39.54141602 21.36325684 40.27636719 21.80444336 C42.23974609 23.06933594 42.23974609 23.06933594 45.11474609 25.50683594 C45.93258991 30.1280505 44.03368486 32.76948568 41.55224609 36.56933594 C40.81193529 37.70994831 40.07369983 38.85191 39.33740234 39.99511719 C38.96373535 40.57342285 38.59006836 41.15172852 38.20507812 41.74755859 C35.90845728 45.45321238 33.94813878 49.36797296 31.95068359 53.24121094 C30.11474609 55.50683594 30.11474609 55.50683594 27.32739258 56.31176758 C23.52778352 56.54247566 22.0951348 55.8567427 18.87646484 53.89355469 C17.8987915 53.30920654 16.92111816 52.7248584 15.91381836 52.12280273 C14.88699951 51.48640869 13.86018066 50.85001465 12.80224609 50.19433594 C11.74513428 49.55729736 10.68802246 48.92025879 9.59887695 48.26391602 C7.45359461 46.97090248 5.31203659 45.67168891 3.17431641 44.36621094 C-1.12573102 41.75296794 -5.47336133 39.22422548 -9.82275391 36.69433594 C-16.72542176 32.66666809 -16.72542176 32.66666809 -17.88525391 31.50683594 C-18.54193562 24.57827663 -15.28315193 20.12233915 -11.80615234 14.37304688 C-10.75902108 12.62978352 -9.75163303 10.86725984 -8.74462891 9.10058594 C-8.08720703 7.99972656 -7.42978516 6.89886719 -6.75244141 5.76464844 C-6.15544434 4.75547363 -5.55844727 3.74629883 -4.94335938 2.70654297 C-2.88525391 0.50683594 -2.88525391 0.50683594 0 0 Z " fill="#FEF1FD" transform="translate(170.88525390625,56.4931640625)"/>
<path d="M0 0 C16.17 0 32.34 0 49 0 C54 16 54 16 54 18 C41.32084863 18.55483024 30.49292823 18.99998459 19 13 C17.34484375 12.17435547 17.34484375 12.17435547 15.65625 11.33203125 C14.7796875 10.89246094 13.903125 10.45289062 13 10 C24.29730298 16.99686084 35.84883068 24.10998995 49 27 C48.505 28.485 48.505 28.485 48 30 C41.35445491 32.2151817 32.56888484 32.32913366 25.96875 29.87109375 C23.47679685 28.39822638 21.25240964 26.81537494 19 25 C18.3915625 24.566875 17.783125 24.13375 17.15625 23.6875 C10.03229931 18.2473922 4.26601192 9.78952176 0 2 C0 1.34 0 0.68 0 0 Z " fill="#CA86FC" transform="translate(53,94)"/>
<path d="M0 0 C-4.85993285 12.60779267 -12.75725044 30.45041828 -24.8125 37.625 C-29.72595531 39.66015901 -34.78567111 39.77694301 -40 39 C-47.71776515 35.35954474 -52.94673349 27.81277019 -56 20 C-56 19.34 -56 18.68 -56 18 C-55.030625 17.97421875 -54.06125 17.9484375 -53.0625 17.921875 C-34.05828242 17.20852863 -19.36416304 12.19197485 -3.70703125 1.06640625 C-2 0 -2 0 0 0 Z " fill="#0CC6CE" transform="translate(334,112)"/>
<path d="M0 0 C-0.72404774 4.04704581 -1.83446287 7.89070402 -3.0625 11.8125 C-3.42472656 12.97394531 -3.78695312 14.13539063 -4.16015625 15.33203125 C-4.43730469 16.21246094 -4.71445312 17.09289062 -5 18 C0.91134769 14.42065186 5.26983517 9.80520822 9.96484375 4.78125 C10.55652344 4.16765625 11.14820313 3.5540625 11.7578125 2.921875 C12.2852002 2.36081055 12.81258789 1.79974609 13.35595703 1.22167969 C15 0 15 0 19 0 C18.27595226 4.04704581 17.16553713 7.89070402 15.9375 11.8125 C15.57527344 12.97394531 15.21304688 14.13539063 14.83984375 15.33203125 C14.56269531 16.21246094 14.28554688 17.09289062 14 18 C18.81286744 15.24979004 21.51094675 12.30192755 24.60546875 7.70703125 C26 6 26 6 29 5 C29.6796875 6.75 29.6796875 6.75 30 9 C28.8203125 11 28.8203125 11 27.125 13 C24.89055124 15.66055295 23.60065598 17.55007845 23 21 C28.934896 17.02184083 33.44851274 12.46178471 38.01953125 6.9765625 C40 5 40 5 43 5 C42.67 6.65 42.34 8.3 42 10 C44.2608053 10 46.53286862 6.79349405 48.11328125 5.3125 C50 4 50 4 54 4 C53.59521413 8.45264453 51.76319946 10.96505903 49.05859375 14.3515625 C47.72982279 16.0942066 47.72982279 16.0942066 48 19 C48.969375 18.21625 49.93875 17.4325 50.9375 16.625 C51.48277344 16.18414062 52.02804687 15.74328125 52.58984375 15.2890625 C54.13266437 14.0333609 54.13266437 14.0333609 55 12 C55.66 12 56.32 12 57 12 C56.43491477 15.47339053 55.37356664 16.95006976 52.6875 19.1875 C52.09324219 19.69667969 51.49898438 20.20585937 50.88671875 20.73046875 C48.86593955 22.09020631 47.42249054 22.74526388 45 23 C44.01 22.01 44.01 22.01 43 21 C43.03287583 18.27130593 43.56397771 15.7033382 44 13 C43.29423828 13.95712891 43.29423828 13.95712891 42.57421875 14.93359375 C41.95160156 15.75988281 41.32898438 16.58617187 40.6875 17.4375 C40.07261719 18.26121094 39.45773437 19.08492187 38.82421875 19.93359375 C37 22 37 22 34 23 C33.01 20.525 33.01 20.525 32 18 C30.6696875 19.2375 30.6696875 19.2375 29.3125 20.5 C27.09196608 22.34782019 26.16627373 22.96976841 23.25 23.5 C21 23 21 23 19 20 C18.33613281 20.22816406 17.67226563 20.45632812 16.98828125 20.69140625 C16.10527344 20.97886719 15.22226562 21.26632813 14.3125 21.5625 C13.44238281 21.85253906 12.57226562 22.14257812 11.67578125 22.44140625 C8.70610793 23.06135265 6.88045572 22.90754084 4 22 C2.1875 19.9375 2.1875 19.9375 1 18 C0.23816406 18.41572266 0.23816406 18.41572266 -0.5390625 18.83984375 C-8.62941043 23.09712421 -8.62941043 23.09712421 -13 23 C-15.875 20.5625 -15.875 20.5625 -18 18 C-18.556875 18.66 -19.11375 19.32 -19.6875 20 C-22 22 -22 22 -24.5625 22.375 C-27 22 -27 22 -30 20 C-30.556875 20.515625 -31.11375 21.03125 -31.6875 21.5625 C-34 23 -34 23 -36.6875 22.75 C-39 22 -39 22 -40 21 C-40.72580247 16.74887124 -39.87631073 14.32032857 -37.5 10.875 C-34.38638644 7.03094155 -30.85303657 4.247643 -26 3 C-22.94975768 3.4233226 -21.65296146 4.23135902 -19 6 C-19.68886787 9.38891322 -20.98716486 12.18011613 -22.5625 15.25 C-23.24505859 16.58804688 -23.24505859 16.58804688 -23.94140625 17.953125 C-24.29074219 18.62859375 -24.64007813 19.3040625 -25 20 C-19.78388063 15.50870119 -14.75348807 10.95847611 -10.05859375 5.9140625 C-9.35863281 5.17929688 -8.65867187 4.44453125 -7.9375 3.6875 C-7.28652344 2.99011719 -6.63554687 2.29273438 -5.96484375 1.57421875 C-4 0 -4 0 0 0 Z M-32.76171875 11.68359375 C-35.10220166 14.1789063 -35.10220166 14.1789063 -37 17 C-36.74222775 19.18091995 -36.74222775 19.18091995 -36 21 C-30.43161693 16.57845513 -26.38817718 12.27138565 -23 6 C-26.93887254 6 -30.03356187 9.07641944 -32.76171875 11.68359375 Z M-10.625 9.1875 C-12.54774954 11.03252429 -12.54774954 11.03252429 -14 13 C-14.13210475 15.86920862 -14.13210475 15.86920862 -13 18 C-11.02 18.495 -11.02 18.495 -9 19 C-6.35527522 12.71724311 -6.35527522 12.71724311 -6 6 C-7.94156832 6 -9.28898782 7.93931332 -10.625 9.1875 Z M8.375 9.1875 C6.45225046 11.03252429 6.45225046 11.03252429 5 13 C4.86789525 15.86920862 4.86789525 15.86920862 6 18 C7.98 18.495 7.98 18.495 10 19 C12.64472478 12.71724311 12.64472478 12.71724311 13 6 C11.05843168 6 9.71101218 7.93931332 8.375 9.1875 Z " fill="#50D6DC" transform="translate(306,153)"/>
<path d="M0 0 C0.67353516 -0.01409912 1.34707031 -0.02819824 2.04101562 -0.04272461 C6.65846703 0.00237661 9.85016215 0.91740987 13.75 3.375 C16.09549674 6.89324511 16.32991403 8.23275694 15.75 12.375 C12.84989671 16.02084413 10.18698984 17.98051748 5.75 19.375 C6.4925 19.87 6.4925 19.87 7.25 20.375 C9.20237141 22.97816188 9.24011279 25.18605247 9.08203125 28.3828125 C8.51343053 31.79441683 7.37261444 33.12704476 4.75 35.375 C-1.29489405 38.68504073 -7.36074657 40.50784091 -14.25 39.375 C-17.6875 37.9375 -17.6875 37.9375 -20.25 36.375 C-20.91 36.045 -21.57 35.715 -22.25 35.375 C-23.03375 35.87 -23.8175 36.365 -24.625 36.875 C-27.25 38.375 -27.25 38.375 -29.5 38.125 C-31.25 37.375 -31.25 37.375 -32.25 36.375 C-32.02102883 29.73483603 -30.42140298 26.50903444 -26.25 21.375 C-23.875 21.5625 -23.875 21.5625 -21.25 22.375 C-20.0859375 24.92578125 -20.0859375 24.92578125 -19.25 27.375 C-18.70472656 26.62476563 -18.15945312 25.87453125 -17.59765625 25.1015625 C-12.22933139 17.81532329 -6.66530408 10.79030408 -0.25 4.375 C1.41617115 4.33436168 3.08388095 4.332279 4.75 4.375 C5.245 5.86 5.245 5.86 5.75 7.375 C2.45 10.015 -0.85 12.655 -4.25 15.375 C-0.75745851 17.12127074 3.03689909 16.22578156 6.75 15.375 C9.40154031 13.8098581 9.40154031 13.8098581 10.75 11.375 C11.08498301 8.70665034 11.08498301 8.70665034 10.75 6.375 C4.64209499 2.51737578 -0.9570834 2.60726529 -7.87109375 3.84375 C-13.63895683 5.31863736 -18.46740192 7.64386051 -22.25 12.375 C-23.37388378 15.39359883 -23.30700912 16.20397264 -22.25 19.375 C-23.57 19.045 -24.89 18.715 -26.25 18.375 C-27.18974164 11.67934085 -27.18974164 11.67934085 -24.8203125 8.390625 C-17.50179569 1.5129827 -9.79679877 0.15125433 0 0 Z M-7.25 17.375 C-7.70890625 17.97828125 -8.1678125 18.5815625 -8.640625 19.203125 C-9.25421875 20.00234375 -9.8678125 20.8015625 -10.5 21.625 C-11.40492188 22.80835938 -11.40492188 22.80835938 -12.328125 24.015625 C-14.18182995 26.29131157 -16.13898954 28.33871558 -18.25 30.375 C-17.40646064 33.04620799 -16.79188875 34.91647875 -14.625 36.75 C-9.53210309 38.09023603 -5.44115176 37.00428772 -0.9375 34.625 C1.82065156 32.31584985 3.37424847 30.69298899 4.75 27.375 C4.91977494 24.72372531 4.91977494 24.72372531 3.75 22.375 C0.41753954 19.69051796 -2.01204266 19.01174651 -6.25 19.375 C-6.58 18.715 -6.91 18.055 -7.25 17.375 Z M-26.25 25.375 C-28.28435531 29.10465139 -29.25 31.04405042 -29.25 35.375 C-26.38275314 34.80155063 -25.3885485 34.5135485 -23.25 32.375 C-23.41442277 29.30508319 -23.41442277 29.30508319 -24.25 26.375 C-24.91 26.045 -25.57 25.715 -26.25 25.375 Z " fill="#4AD5DA" transform="translate(255.25,138.625)"/>
<path d="M0 0 C3.26448268 1.48998177 5.9093252 3.37906207 8.75 5.5625 C20.93821233 14.46927055 33.63014901 20.46496039 48 25 C47.505 26.485 47.505 26.485 47 28 C40.35445491 30.2151817 31.56888484 30.32913366 24.96875 27.87109375 C22.47679685 26.39822638 20.25240964 24.81537494 18 23 C17.3915625 22.566875 16.783125 22.13375 16.15625 21.6875 C9.28331306 16.43907543 2.82777121 8.15415507 0 0 Z " fill="#13C5D0" transform="translate(54,96)"/>
<path d="M0 0 C4.77968626 1.89600101 9.51747205 3.88701756 14.2578125 5.87890625 C18.12275922 7.45901979 21.17247046 8.1558414 25.32421875 8.31640625 C26.86625977 8.37924805 26.86625977 8.37924805 28.43945312 8.44335938 C30.04723633 8.50233398 30.04723633 8.50233398 31.6875 8.5625 C32.77095703 8.60568359 33.85441406 8.64886719 34.97070312 8.69335938 C37.64698385 8.79946742 40.32347511 8.90024055 43 9 C45.475 14.445 45.475 14.445 48 20 C32.38822686 21.59303808 11.93560845 10.58164123 0 1 C0 0.67 0 0.34 0 0 Z " fill="#7A0BFB" transform="translate(65,103)"/>
<path d="M0 0 C0.10957031 0.56589844 0.21914062 1.13179688 0.33203125 1.71484375 C0.49058594 2.44832031 0.64914063 3.18179688 0.8125 3.9375 C0.96332031 4.66839844 1.11414063 5.39929688 1.26953125 6.15234375 C1.51058594 6.76207031 1.75164062 7.37179688 2 8 C5.01490557 9.00496852 7.04181692 9.10335303 10.1875 9.0625 C11.775625 9.041875 13.36375 9.02125 15 9 C17.475 15.435 17.475 15.435 20 22 C16.16559987 22 14.32453887 20.7222936 10.9765625 18.859375 C10.3933725 18.53592102 9.8101825 18.21246704 9.20932007 17.87921143 C7.97540038 17.19288728 6.74322929 16.50341132 5.51269531 15.81103516 C3.64318407 14.7602209 1.76749248 13.72119951 -0.109375 12.68359375 C-5.36745189 9.75061236 -10.37132258 6.8895908 -15 3 C-12.66836622 2.32741333 -10.3347961 1.66152556 -8 1 C-7.278125 0.79375 -6.55625 0.5875 -5.8125 0.375 C-4 0 -4 0 0 0 Z " fill="#FE1CE2" transform="translate(175,84)"/>
<path d="M0 0 C3.75805664 2.14746094 3.75805664 2.14746094 7.51611328 4.29492188 C8.16692871 4.66681641 8.81774414 5.03871094 9.48828125 5.421875 C17.9921875 10.28125 26.49609375 15.140625 35 20 C31.64417969 21.79102769 29.06272266 22.35266267 25.25 22.625 C24.26515625 22.69976562 23.2803125 22.77453125 22.265625 22.8515625 C21.51796875 22.90054688 20.7703125 22.94953125 20 23 C19.5875 21.88625 19.175 20.7725 18.75 19.625 C17.76486232 17.37779653 17.19723445 16.16801453 15.3125 14.5625 C11.83201818 13.71589631 8.57773294 13.88074224 5 14 C4.34760842 12.60721983 3.70339448 11.21060788 3.0625 9.8125 C2.70285156 9.03519531 2.34320313 8.25789063 1.97265625 7.45703125 C0.99034559 4.97561196 0.44318456 2.62645164 0 0 Z " fill="#E819F7" transform="translate(174,62)"/>
<path d="M0 0 C0.33 0 0.66 0 1 0 C1.578125 2.60546875 1.578125 2.60546875 1 6 C-1.77608913 8.59370102 -4.97830282 10.40598851 -8.25 12.3125 C-9.12269531 12.84939453 -9.99539063 13.38628906 -10.89453125 13.93945312 C-17.90044854 18.1804397 -17.90044854 18.1804397 -22 19 C-20.50838873 15.41207019 -18.46967132 13.35687162 -15.5625 10.8125 C-14.78003906 10.11769531 -13.99757813 9.42289063 -13.19140625 8.70703125 C-11 7 -11 7 -8 6 C-44.63 5.67 -81.26 5.34 -119 5 C-119 4.67 -119 4.34 -119 4 C-79.73 4 -40.46 4 0 4 C0 2.68 0 1.36 0 0 Z " fill="#A255D7" transform="translate(359,90)"/>
<path d="M0 0 C0.99 0.66 1.98 1.32 3 2 C2.32902328 6.19360449 0.1441606 9.40334352 -2 13 C-2.66 13 -3.32 13 -4 13 C-4 14.32 -4 15.64 -4 17 C-4.5775 16.773125 -5.155 16.54625 -5.75 16.3125 C-6.4925 16.209375 -7.235 16.10625 -8 16 C-8.639375 16.495 -9.27875 16.99 -9.9375 17.5 C-12 19 -12 19 -14.6875 18.75 C-17 18 -17 18 -18 17 C-18.72580247 12.74887124 -17.87631073 10.32032857 -15.5 6.875 C-11.60859944 2.07068793 -6.36129999 -2.33758614 0 0 Z M-10.76171875 7.68359375 C-13.10220166 10.1789063 -13.10220166 10.1789063 -15 13 C-14.74222775 15.18091995 -14.74222775 15.18091995 -14 17 C-8.43161693 12.57845513 -4.38817718 8.27138565 -1 2 C-4.93887254 2 -8.03356187 5.07641944 -10.76171875 7.68359375 Z " fill="#47D4DA" transform="translate(284,157)"/>
<path d="M0 0 C4.66666667 4 9.33333333 8 14 12 C13 14 13 14 11.18066406 14.61889648 C7.71966009 15.22375846 4.25058702 15.10239172 0.75 15.0625 C-1.8075 15.041875 -4.365 15.02125 -7 15 C-3.535 7.575 -3.535 7.575 0 0 Z " fill="#0FC4CD" transform="translate(237,107)"/>
<path d="M0 0 C2.90026063 1.45013031 3.04954396 3.30520627 4.125 6.3125 C4.47820312 7.27800781 4.83140625 8.24351563 5.1953125 9.23828125 C6 12 6 12 6 16 C4.45998293 16.34087334 2.91787594 16.67230953 1.375 17 C0.51648438 17.185625 -0.34203125 17.37125 -1.2265625 17.5625 C-4.19269005 18.03039618 -7.00207333 18.07033259 -10 18 C-8.9008228 15.74743959 -7.79589789 13.49801826 -6.6875 11.25 C-6.37876953 10.61578125 -6.07003906 9.9815625 -5.75195312 9.328125 C-4.089649 5.96852088 -2.38120835 2.90141079 0 0 Z " fill="#E81BF7" transform="translate(169,64)"/>
<path d="M0 0 C-4.95 8.91 -4.95 8.91 -10 18 C-10.66 18 -11.32 18 -12 18 C-13.65 12.72 -15.3 7.44 -17 2 C-4.5 -1.125 -4.5 -1.125 0 0 Z " fill="#FF16E1" transform="translate(210,88)"/>
<path d="M0 0 C-0.40478587 4.45264453 -2.23680054 6.96505903 -4.94140625 10.3515625 C-6.27017721 12.0942066 -6.27017721 12.0942066 -6 15 C-4.5459375 13.824375 -4.5459375 13.824375 -3.0625 12.625 C-2.51722656 12.18414062 -1.97195313 11.74328125 -1.41015625 11.2890625 C0.13266437 10.0333609 0.13266437 10.0333609 1 8 C1.66 8 2.32 8 3 8 C2.43491477 11.47339053 1.37356664 12.95006976 -1.3125 15.1875 C-2.20388672 15.95126953 -2.20388672 15.95126953 -3.11328125 16.73046875 C-5.13406045 18.09020631 -6.57750946 18.74526388 -9 19 C-9.66 18.34 -10.32 17.68 -11 17 C-10.96712417 14.27130593 -10.43602229 11.7033382 -10 9 C-11.65 10.98 -13.3 12.96 -15 15 C-15.66 13.68 -16.32 12.36 -17 11 C-14.91545228 8.87096498 -12.76177755 6.87687505 -10.5 4.9375 C-9.9121875 4.43089844 -9.324375 3.92429688 -8.71875 3.40234375 C-5.47520723 0.75590772 -4.3265834 0 0 0 Z " fill="#4AD5DA" transform="translate(360,157)"/>
<path d="M0 0 C9.24 0 18.48 0 28 0 C28.33 1.32 28.66 2.64 29 4 C27.20170923 5.79829077 24.49022841 5.13035658 22.06640625 5.1328125 C20.2575293 5.13474609 20.2575293 5.13474609 18.41210938 5.13671875 C17.14173828 5.13285156 15.87136719 5.12898438 14.5625 5.125 C13.29599609 5.12886719 12.02949219 5.13273437 10.72460938 5.13671875 C9.51740234 5.13542969 8.31019531 5.13414063 7.06640625 5.1328125 C5.95209229 5.13168457 4.83777832 5.13055664 3.68969727 5.12939453 C1 5 1 5 -1 4 C-0.67 2.68 -0.34 1.36 0 0 Z " fill="#FFDBF5" transform="translate(137,99)"/>
<path d="M0 0 C4.81889849 2.21210388 7.68095212 5.01703717 10.73828125 9.31640625 C10.73828125 9.64640625 10.73828125 9.97640625 10.73828125 10.31640625 C1.50945776 9.85496508 -6.1030158 6.48296476 -14.26171875 2.31640625 C-14.26171875 1.65640625 -14.26171875 0.99640625 -14.26171875 0.31640625 C-10.01083417 -1.80903604 -4.46337282 -1.34903324 0 0 Z " fill="#E545A2" transform="translate(266.26171875,118.68359375)"/>
<path d="M0 0 C0.67353516 -0.01409912 1.34707031 -0.02819824 2.04101562 -0.04272461 C6.65050167 0.00229881 9.84237169 0.94753393 13.75 3.375 C14.245 4.365 14.245 4.365 14.75 5.375 C13.125 6.0625 13.125 6.0625 10.75 6.375 C9.88375 5.900625 9.0175 5.42625 8.125 4.9375 C1.29780326 1.77676077 -5.93769716 3.00243155 -12.9140625 5.32421875 C-16.59933213 6.98197382 -19.71780537 9.20782078 -22.25 12.375 C-23.37388378 15.39359883 -23.30700912 16.20397264 -22.25 19.375 C-23.57 19.045 -24.89 18.715 -26.25 18.375 C-27.18974164 11.67934085 -27.18974164 11.67934085 -24.8203125 8.390625 C-17.50179569 1.5129827 -9.79679877 0.15125433 0 0 Z " fill="#5BD9DE" transform="translate(255.25,138.625)"/>
<path d="M0 0 C6.6 0 13.2 0 20 0 C20.33 1.32 20.66 2.64 21 4 C20 5 20 5 18.05053711 5.11352539 C17.2178833 5.10828857 16.38522949 5.10305176 15.52734375 5.09765625 C14.62822266 5.09443359 13.72910156 5.09121094 12.80273438 5.08789062 C11.85720703 5.07951172 10.91167969 5.07113281 9.9375 5.0625 C8.98810547 5.05798828 8.03871094 5.05347656 7.06054688 5.04882812 C4.70696935 5.0370011 2.35351523 5.02052025 0 5 C0 3.35 0 1.7 0 0 Z " fill="#FBD4FE" transform="translate(132,74)"/>
<path d="M0 0 C2 3 2 3 1.75 5.5625 C1 8 1 8 -1 10 C-4.625 9.625 -4.625 9.625 -8 9 C-9.32561852 2.61292897 -9.32561852 2.61292897 -7.9375 0 C-4.99948754 -1.51639353 -3.09843192 -0.92293717 0 0 Z " fill="#FA12FB" transform="translate(188,80)"/>
<path d="M0 0 C0.66 0.33 1.32 0.66 2 1 C1.01 2.485 1.01 2.485 0 4 C-0.309375 4.639375 -0.61875 5.27875 -0.9375 5.9375 C-2 8 -2 8 -3.625 10.0625 C-5.2893735 12.0117832 -5.2893735 12.0117832 -5 15 C-3.02 13.68 -1.04 12.36 1 11 C1.66 11.33 2.32 11.66 3 12 C2 15 2 15 -0.25 16.75 C-3.42641209 18.19382368 -4.74074766 18.08641745 -8 17 C-9 16 -9 16 -9.4375 13.4375 C-8.81660545 8.55904281 -6.29248766 5.55684798 -3 2 C-2.01 1.34 -1.02 0.68 0 0 Z " fill="#5CD9DE" transform="translate(275,158)"/>
<path d="M0 0 C-3.82246856 4.16257215 -7.81931569 6.97469324 -12.6875 9.8125 C-13.36361328 10.21919922 -14.03972656 10.62589844 -14.73632812 11.04492188 C-19.72767857 14 -19.72767857 14 -22 14 C-20.51828928 10.46608031 -18.54451438 8.40069674 -15.6875 5.875 C-14.92824219 5.19179687 -14.16898437 4.50859375 -13.38671875 3.8046875 C-8.98818308 0.47878983 -5.46189532 -0.25404164 0 0 Z " fill="#E752A9" transform="translate(359,95)"/>
<path d="M0 0 C6.6 0 13.2 0 20 0 C20 1.32 20 2.64 20 4 C13.07 4 6.14 4 -1 4 C-0.67 2.68 -0.34 1.36 0 0 Z " fill="#FDF8FE" transform="translate(137,66)"/>
<path d="M0 0 C-0.37347796 3.26793215 -0.84832678 4.81988805 -3 7.375 C-5.4481891 10.5882482 -5.68837926 13.02683563 -6 17 C-6.99 17.33 -7.98 17.66 -9 18 C-11.40682385 11.77057357 -11.40682385 11.77057357 -10 8 C-8.4765625 5.859375 -8.4765625 5.859375 -6.625 3.75 C-6.01914062 3.04359375 -5.41328125 2.3371875 -4.7890625 1.609375 C-3 0 -3 0 0 0 Z " fill="#34D0D6" transform="translate(349,158)"/>
<path d="M0 0 C6.6 0 13.2 0 20 0 C20 1.32 20 2.64 20 4 C13.4 4 6.8 4 0 4 C0 2.68 0 1.36 0 0 Z " fill="#FFF9FE" transform="translate(132,91)"/>
<path d="M0 0 C6.93 0 13.86 0 21 0 C20.67 1.32 20.34 2.64 20 4 C13.73 4 7.46 4 1 4 C0.67 2.68 0.34 1.36 0 0 Z " fill="#FEEDFE" transform="translate(127,83)"/>
<path d="M0 0 C0.33 0.66 0.66 1.32 1 2 C1.66 2 2.32 2 3 2 C2 4 2 4 0.5 6.375 C-0.81497345 8.67620354 -1.52286596 10.4234762 -2 13 C1.26460973 11.19587357 2.88929795 10.16605307 5 7 C5 8.32 5 9.64 5 11 C5.66 11 6.32 11 7 11 C5.45294267 14.09411467 3.11928228 14.71558965 0 16 C-2.24500075 15.75729722 -3.40484992 15.59515008 -5 14 C-4.69508644 8.00336667 -3.66701331 4.73163008 0 0 Z " fill="#5AD8DD" transform="translate(228,161)"/>
<path d="M0 0 C-0.33 0.99 -0.66 1.98 -1 3 C-1 2.34 -1 1.68 -1 1 C-3.79872437 3.52788007 -5.45773019 5.20411134 -6 9 C-6.33 8.34 -6.66 7.68 -7 7 C-11.80576828 11.41411114 -11.80576828 11.41411114 -15 17 C-15.33 16.67 -15.66 16.34 -16 16 C-16.33 16.99 -16.66 17.98 -17 19 C-17.66 19 -18.32 19 -19 19 C-20.66965451 19.31802943 -22.33678518 19.64984951 -24 20 C-24 19.01 -24 18.02 -24 17 C-23.33097656 16.82726562 -22.66195313 16.65453125 -21.97265625 16.4765625 C-16.82588039 13.9200825 -13.32321028 9.39527221 -9.43945312 5.234375 C-8.47749023 4.23277344 -8.47749023 4.23277344 -7.49609375 3.2109375 C-6.92044678 2.59524902 -6.3447998 1.97956055 -5.75170898 1.34521484 C-4 0 -4 0 0 0 Z " fill="#6FDDE2" transform="translate(325,153)"/>
<path d="M0 0 C-0.66746197 4.3385028 -1.55501034 8.59657551 -2.5234375 12.875 C-3.05444652 15.24277793 -3.53890207 17.61766068 -4 20 C-6.31 19.67 -8.62 19.34 -11 19 C-10.01 18.34 -9.02 17.68 -8 17 C-6.19289804 13.2147535 -5 9.32260359 -5 5.125 C-5 3 -5 3 -3.625 1.1875 C-2 0 -2 0 0 0 Z " fill="#3FD2D8" transform="translate(305,154)"/>
<path d="M0 0 C0 0.66 0 1.32 0 2 C-1.71363849 3.56598818 -3.53375343 4.94928042 -5.37109375 6.3671875 C-7.26315128 8.26378234 -7.71491975 9.35652859 -8 12 C-7.67 12.99 -7.34 13.98 -7 15 C-8.32 14.67 -9.64 14.34 -11 14 C-11.61042815 6.79694786 -11.61042815 6.79694786 -8.75 3.0625 C-5.62393582 0.71795187 -3.81921648 0 0 0 Z " fill="#5ED9DE" transform="translate(240,143)"/>
<path d="M0 0 C0.97918775 3.07556958 1.1498998 3.68592423 -0.3125 6.75 C-0.869375 7.4925 -1.42625 8.235 -2 9 C-2.66 9 -3.32 9 -4 9 C-4 10.32 -4 11.64 -4 13 C-4.66 13 -5.32 13 -6 13 C-8 10 -8 10 -7.84765625 8.015625 C-6.79964732 5.52358532 -5.53888041 4.43110433 -3.4375 2.75 C-2.79683594 2.22921875 -2.15617187 1.7084375 -1.49609375 1.171875 C-1.00238281 0.78515625 -0.50867188 0.3984375 0 0 Z " fill="#34D0D6" transform="translate(284,161)"/>
<path d="M0 0 C-0.30830925 2.00401011 -0.64963394 4.00291344 -1 6 C-1.1340625 6.78117188 -1.268125 7.56234375 -1.40625 8.3671875 C-1.5609375 9.17414063 -1.715625 9.98109375 -1.875 10.8125 C-2.01679688 11.58207031 -2.15859375 12.35164062 -2.3046875 13.14453125 C-2.53414063 13.75683594 -2.76359375 14.36914062 -3 15 C-3.99 15.33 -4.98 15.66 -6 16 C-6.275154 4.71868583 -6.275154 4.71868583 -3.5625 1.0625 C-2 0 -2 0 0 0 Z " fill="#40D2D8" transform="translate(324,154)"/>
<path d="M0 0 C0.66 0.33 1.32 0.66 2 1 C0.50989011 5.71868132 0.50989011 5.71868132 -1.8125 7 C-2.534375 7.33 -3.25625 7.66 -4 8 C-5.70496537 9.62746694 -7.37897032 11.28891311 -9 13 C-9.6875 11.1875 -9.6875 11.1875 -10 9 C-7.99872171 6.69852997 -5.63454157 4.78404473 -3.3125 2.8125 C-2.68988281 2.28269531 -2.06726563 1.75289062 -1.42578125 1.20703125 C-0.95527344 0.80871094 -0.48476563 0.41039062 0 0 Z " fill="#76DFE3" transform="translate(353,159)"/>
<path d="M0 0 C-0.33 0.99 -0.66 1.98 -1 3 C-1 2.34 -1 1.68 -1 1 C-3.79872437 3.52788007 -5.45773019 5.20411134 -6 9 C-6.33 8.34 -6.66 7.68 -7 7 C-9.31 8.98 -11.62 10.96 -14 13 C-14.66 12.34 -15.32 11.68 -16 11 C-15.46890625 10.54109375 -14.9378125 10.0821875 -14.390625 9.609375 C-13.33101563 8.68898437 -13.33101563 8.68898437 -12.25 7.75 C-11.5178125 7.11449219 -10.785625 6.47898438 -10.03125 5.82421875 C-7.89729771 3.96494207 -7.89729771 3.96494207 -5.75 1.5625 C-4 0 -4 0 0 0 Z " fill="#84E2E6" transform="translate(306,153)"/>
<path d="M0 0 C0.66 0 1.32 0 2 0 C1.43491477 3.47339053 0.37356664 4.95006976 -2.3125 7.1875 C-3.20388672 7.95126953 -3.20388672 7.95126953 -4.11328125 8.73046875 C-6.09091784 10.0611766 -7.67100075 10.57327387 -10 11 C-10.33 10.34 -10.66 9.68 -11 9 C-10.34 9 -9.68 9 -9 9 C-8.67 7.68 -8.34 6.36 -8 5 C-7.67 5.66 -7.34 6.32 -7 7 C-6.030625 6.21625 -5.06125 5.4325 -4.0625 4.625 C-3.51722656 4.18414062 -2.97195313 3.74328125 -2.41015625 3.2890625 C-0.86733563 2.0333609 -0.86733563 2.0333609 0 0 Z " fill="#8DE4E8" transform="translate(361,165)"/>
<path d="M0 0 C0.99 0.33 1.98 0.66 3 1 C2 4 2 4 -0.25 5.75 C-3.41076857 7.18671298 -4.74770785 7.02214896 -8 6 C-7.34 4.68 -6.68 3.36 -6 2 C-5.67 2.66 -5.34 3.32 -5 4 C-4.236875 3.319375 -3.47375 2.63875 -2.6875 1.9375 C-1.800625 1.298125 -0.91375 0.65875 0 0 Z " fill="#9AE7EA" transform="translate(275,169)"/>
<path d="M0 0 C0.33 0.99 0.66 1.98 1 3 C1.99 3.33 2.98 3.66 4 4 C4 4.66 4 5.32 4 6 C5.65 6.33 7.3 6.66 9 7 C6 9 6 9 3.3125 8.625 C2.549375 8.41875 1.78625 8.2125 1 8 C0.34 5.69 -0.32 3.38 -1 1 C-0.67 0.67 -0.34 0.34 0 0 Z " fill="#48D4DA" transform="translate(309,167)"/>
<path d="M0 0 C1.98 0.99 1.98 0.99 4 2 C4 3.98 4 5.96 4 8 C2.68 8.33 1.36 8.66 0 9 C0 6.03 0 3.06 0 0 Z " fill="#3CD1D7" transform="translate(267,143)"/>
<path d="M0 0 C0.99 0 1.98 0 3 0 C2.67 1.65 2.34 3.3 2 5 C1.4225 5.12375 0.845 5.2475 0.25 5.375 C-2.02335767 6.00648824 -3.9253529 6.88858191 -6 8 C-2.25 2.25 -2.25 2.25 0 0 Z " fill="#5AD8DE" transform="translate(346,158)"/>
<path d="M0 0 C-0.33 0.99 -0.66 1.98 -1 3 C-1 2.34 -1 1.68 -1 1 C-3.79872437 3.52788007 -5.45773019 5.20411134 -6 9 C-6.33 8.34 -6.66 7.68 -7 7 C-7.99 7.66 -8.98 8.32 -10 9 C-10 5.51620548 -9.60544626 5.17377657 -7.25 2.8125 C-6.48429687 2.01779297 -6.48429687 2.01779297 -5.703125 1.20703125 C-4 0 -4 0 0 0 Z " fill="#8EE4E8" transform="translate(325,153)"/>
<path d="M0 0 C0.33 0.66 0.66 1.32 1 2 C1.99 2.33 2.98 2.66 4 3 C-1.29230769 7.06153846 -1.29230769 7.06153846 -4.875 6.75 C-5.57625 6.5025 -6.2775 6.255 -7 6 C-6.01 5.34 -5.02 4.68 -4 4 C-2.64748503 2.68612831 -1.31054623 1.35573748 0 0 Z " fill="#7DE1E5" transform="translate(266,150)"/>
<path d="M0 0 C0.66 0.33 1.32 0.66 2 1 C-1.3 4.3 -4.6 7.6 -8 11 C-8.66 10.67 -9.32 10.34 -10 10 C-8.90033225 8.70450101 -7.79508199 7.41373929 -6.6875 6.125 C-6.07261719 5.40570313 -5.45773437 4.68640625 -4.82421875 3.9453125 C-3 2 -3 2 0 0 Z " fill="#8457DF" transform="translate(313,41)"/>
<path d="M0 0 C0.33 0.99 0.66 1.98 1 3 C-4.29230769 7.92307692 -4.29230769 7.92307692 -7.875 8.3125 C-8.926875 8.1578125 -8.926875 8.1578125 -10 8 C-6.66666667 5.33333333 -3.33333333 2.66666667 0 0 Z " fill="#7FE1E5" transform="translate(337,168)"/>
<path d="M0 0 C1.35432675 1.31200404 2.68733482 2.64631404 4 4 C4 4.33 4 4.66 4 5 C1.36 5 -1.28 5 -4 5 C-2.25 1.125 -2.25 1.125 0 0 Z " fill="#5C1DD4" transform="translate(109,118)"/>
<path d="M0 0 C0.33 0.66 0.66 1.32 1 2 C1.66 2 2.32 2 3 2 C1.68221547 4.63556905 -0.14219898 6.72269553 -2 9 C-2.66 8.67 -3.32 8.34 -4 8 C-2.87548273 5.0280615 -1.77706209 2.66559313 0 0 Z " fill="#87E3E7" transform="translate(228,161)"/>
<path d="M0 0 C1.32 0.66 2.64 1.32 4 2 C3.67 3.32 3.34 4.64 3 6 C2.01 6 1.02 6 0 6 C-1.98 6.99 -1.98 6.99 -4 8 C-2.68 5.36 -1.36 2.72 0 0 Z " fill="#6EDDE1" transform="translate(283,157)"/>
<path d="M0 0 C0 0.33 0 0.66 0 1 C-1.58086048 1.36504603 -3.16483907 1.71660506 -4.75 2.0625 C-5.63171875 2.25972656 -6.5134375 2.45695313 -7.421875 2.66015625 C-9.98679028 2.99825872 -11.57091639 2.81158635 -14 2 C-8.77729131 -0.66464729 -5.9180497 -1.32854177 0 0 Z " fill="#76DFE3" transform="translate(250,141)"/>
<path d="M0 0 C0.66 0.66 1.32 1.32 2 2 C-1.32307692 5.93846154 -1.32307692 5.93846154 -4.75 6.25 C-5.4925 6.1675 -6.235 6.085 -7 6 C-6.67 4.35 -6.34 2.7 -6 1 C-5.67 1.99 -5.34 2.98 -5 4 C-3.35 2.68 -1.7 1.36 0 0 Z " fill="#7FE1E5" transform="translate(286,169)"/>
<path d="M0 0 C0.33 1.32 0.66 2.64 1 4 C1.66 4 2.32 4 3 4 C2 6 2 6 -1.0625 7.125 C-2.5165625 7.558125 -2.5165625 7.558125 -4 8 C-4.66 7.34 -5.32 6.68 -6 6 C-5.195625 5.566875 -4.39125 5.13375 -3.5625 4.6875 C-0.72153646 3.19525998 -0.72153646 3.19525998 0 0 Z " fill="#94E6E9" transform="translate(232,168)"/>
<path d="M0 0 C2.4375 0.8125 2.4375 0.8125 4.4375 3.8125 C2.8125 4.5 2.8125 4.5 0.4375 4.8125 C-2.8125 3.375 -2.8125 3.375 -5.5625 1.8125 C-2.5625 -0.1875 -2.5625 -0.1875 0 0 Z " fill="#81E1E5" transform="translate(265.5625,140.1875)"/>
<path d="M0 0 C0.93065133 2.60582371 1.14917407 3.64198224 0.0625 6.25 C-0.4634375 7.11625 -0.4634375 7.11625 -1 8 C-1.66 8 -2.32 8 -3 8 C-3.1875 5.125 -3.1875 5.125 -3 2 C-2.01 1.34 -1.02 0.68 0 0 Z " fill="#30CFD5" transform="translate(269,166)"/>
<path d="M0 0 C0.66 0.33 1.32 0.66 2 1 C1.25 3.4375 1.25 3.4375 0 6 C-2.125 6.8125 -2.125 6.8125 -4 7 C-4 4 -4 4 -2 1.8125 C-1.34 1.214375 -0.68 0.61625 0 0 Z " fill="#86E2E6" transform="translate(353,159)"/>
<path d="M0 0 C1.04449911 3.13349732 0.93423645 3.98968256 0 7 C-0.99 7 -1.98 7 -3 7 C-2.25 2.25 -2.25 2.25 0 0 Z " fill="#35D0D6" transform="translate(352,167)"/>
<path d="M0 0 C2.31 0 4.62 0 7 0 C5.515 1.98 5.515 1.98 4 4 C2.68 3.67 1.36 3.34 0 3 C0 2.01 0 1.02 0 0 Z " fill="#5BD9DE" transform="translate(254,156)"/>
<path d="M0 0 C2.475 0.495 2.475 0.495 5 1 C4.67 1.99 4.34 2.98 4 4 C2.68 4 1.36 4 0 4 C0 2.68 0 1.36 0 0 Z " fill="#5DD9DE" transform="translate(336,153)"/>
</svg>
